<?xml version="1.0" encoding="UTF-8" standalone="no"?>
<!-- Created with Inkscape (http://www.inkscape.org/) -->

<svg
   xmlns:dc="http://purl.org/dc/elements/1.1/"
   xmlns:cc="http://creativecommons.org/ns#"
   xmlns:rdf="http://www.w3.org/1999/02/22-rdf-syntax-ns#"
   xmlns:svg="http://www.w3.org/2000/svg"
   xmlns="http://www.w3.org/2000/svg"
   xmlns:xlink="http://www.w3.org/1999/xlink"
   xmlns:sodipodi="http://sodipodi.sourceforge.net/DTD/sodipodi-0.dtd"
   xmlns:inkscape="http://www.inkscape.org/namespaces/inkscape"
   id="svg2837"
   version="1.1"
   inkscape:version="0.48.4 r9939"
   width="640"
   height="640"
   xml:space="preserve"
   sodipodi:docname="tikzit.svg"
   inkscape:export-filename="/home/scratch/tikzit/share/icons/hicolor/128x128/tikzit.png"
   inkscape:export-xdpi="18"
   inkscape:export-ydpi="18"><metadata
     id="metadata2843"><rdf:RDF><cc:Work
         rdf:about=""><dc:format>image/svg+xml</dc:format><dc:type
           rdf:resource="http://purl.org/dc/dcmitype/StillImage" /><dc:title /></cc:Work></rdf:RDF></metadata><defs
     id="defs2841"><linearGradient
       x1="0"
       y1="0"
       x2="1"
       y2="0"
       gradientUnits="userSpaceOnUse"
       gradientTransform="matrix(-1.53e-5,-446.50488,-446.50488,1.53e-5,261.01562,484.2124)"
       spreadMethod="pad"
       id="linearGradient33921"><stop
         style="stop-opacity:1;stop-color:#ffffff"
         offset="0"
         id="stop33923" /><stop
         style="stop-opacity:1;stop-color:#616264"
         offset="0.868134"
         id="stop33925" /><stop
         style="stop-opacity:1;stop-color:#8e9092"
         offset="1"
         id="stop33927" /></linearGradient><linearGradient
       x1="0"
       y1="0"
       x2="100.001"
       y2="0"
       gradientUnits="userSpaceOnUse"
       gradientTransform="matrix(2.466568,0,0,1.0813599,-53.365362,-26.941049)"
       id="linearGradient33985"><stop
         style="stop-opacity:1;stop-color:#000000"
         offset="0"
         id="stop33987" /><stop
         style="stop-opacity:1;stop-color:#000000"
         offset="1"
         id="stop33989" /></linearGradient><linearGradient
       x1="0"
       y1="0"
       x2="100.001"
       y2="0"
       gradientUnits="userSpaceOnUse"
       gradientTransform="matrix(0.8523865,-2.0862427,1.4763641,1.2044983,160.58887,221.97853)"
       id="linearGradient34027"><stop
         style="stop-opacity:1;stop-color:#000000"
         offset="0"
         id="stop34029" /><stop
         style="stop-opacity:1;stop-color:#000000"
         offset="1"
         id="stop34031" /></linearGradient><linearGradient
       x1="0"
       y1="0"
       x2="1"
       y2="0"
       gradientUnits="userSpaceOnUse"
       gradientTransform="matrix(-1.53e-5,446.50391,446.50391,1.53e-5,261.01465,37.708008)"
       spreadMethod="pad"
       id="linearGradient34101"><stop
         style="stop-opacity:1;stop-color:#ffffff"
         offset="0"
         id="stop34103" /><stop
         style="stop-opacity:1;stop-color:#231f20"
         offset="0.92308"
         id="stop34105" /><stop
         style="stop-opacity:1;stop-color:#231f20"
         offset="0.92308"
         id="stop34107" /><stop
         style="stop-opacity:1;stop-color:#231f20"
         offset="1"
         id="stop34109" /></linearGradient><filter
       inkscape:collect="always"
       id="filter34971"
       x="-0.17975496"
       width="1.3595099"
       y="-0.19057154"
       height="1.3811431"><feGaussianBlur
         inkscape:collect="always"
         stdDeviation="35.454644"
         id="feGaussianBlur34973" /></filter><linearGradient
       inkscape:collect="always"
       xlink:href="#linearGradient33921"
       id="linearGradient35685"
       gradientUnits="userSpaceOnUse"
       gradientTransform="matrix(-1.53e-5,-446.50488,-446.50488,1.53e-5,261.01562,484.2124)"
       spreadMethod="pad"
       x1="0"
       y1="0"
       x2="1"
       y2="0" /><inkscape:perspective
       id="perspective35760"
       inkscape:persp3d-origin="0.5 : 0.33333333 : 1"
       inkscape:vp_z="1 : 0.5 : 1"
       inkscape:vp_y="0 : 1000 : 0"
       inkscape:vp_x="0 : 0.5 : 1"
       sodipodi:type="inkscape:persp3d" /><inkscape:perspective
       id="perspective35782"
       inkscape:persp3d-origin="0.5 : 0.33333333 : 1"
       inkscape:vp_z="1 : 0.5 : 1"
       inkscape:vp_y="0 : 1000 : 0"
       inkscape:vp_x="0 : 0.5 : 1"
       sodipodi:type="inkscape:persp3d" /><clipPath
       clipPathUnits="userSpaceOnUse"
       id="clipPath35801"><path
         d="m 392.42766,225.43729 c -3.74981,0 -7.51523,-0.14136 -11.05624,0.92584 -21.41291,-75.54824 -71.13038,-124.92904 -129.17769,-124.92904 -77.58673,0 -140.4832,94.60943 -140.4832,211.31612 0,47.62467 10.47671,91.56379 28.14834,126.90225 -8.56488,14.68555 -13.76772,33.91447 -13.76772,54.98507 0,46.07995 24.83318,83.43531 55.46718,83.43531 24.19047,0 44.75115,-23.30223 52.33595,-55.79054 5.99045,1.17296 12.09737,1.78401 18.29945,1.78401 6.04939,0 12.0093,-0.5758 17.85699,-1.69214 7.53582,32.62291 28.14054,56.04907 52.39418,56.04907 30.63402,0 55.4672,-37.35429 55.4672,-83.43425 0,-20.97873 -5.15952,-40.13501 -13.65906,-54.79597 7.15303,-14.20804 13.13707,-29.81871 17.74266,-46.50939 3.37978,0.96784 6.86469,1.49556 10.43196,1.49556 30.63399,0 55.46719,-37.35535 55.46719,-83.43423 0,-46.07996 -24.8332,-86.30767 -55.46719,-86.30767 z"
         style="fill:none;stroke:#ff0d0d;stroke-width:0.69681585;stroke-linecap:butt;stroke-linejoin:miter;stroke-miterlimit:4;stroke-opacity:1;stroke-dasharray:none"
         id="path35803"
         sodipodi:nodetypes="ccsscsscscssccssc" /></clipPath></defs><sodipodi:namedview
     pagecolor="#ffffff"
     bordercolor="#666666"
     borderopacity="1"
     objecttolerance="10"
     gridtolerance="10"
     guidetolerance="10"
     inkscape:pageopacity="0"
     inkscape:pageshadow="2"
     inkscape:window-width="1366"
     inkscape:window-height="721"
     id="namedview2839"
     showgrid="false"
     inkscape:zoom="0.70710678"
     inkscape:cx="427.61399"
     inkscape:cy="318.87036"
     inkscape:window-x="-2"
     inkscape:window-y="24"
     inkscape:window-maximized="1"
     inkscape:current-layer="g35655" /><g
     id="g2847"
     inkscape:groupmode="layer"
     inkscape:label="tikzit"
     transform="matrix(1.25,0,0,-1.25,0,640)"><g
       id="g35655"><path
         id="path34177"
         style="opacity:0.53036439;fill:#000000;stroke:#000000;stroke-width:10;stroke-linecap:butt;stroke-linejoin:miter;stroke-miterlimit:4;stroke-opacity:1;stroke-dasharray:none;filter:url(#filter34971)"
         d="m 0,0 c -5.28,0 -10.435,-0.531 -15.421,-1.53 -30.151,70.72 -100.304,120.297 -182.039,120.297 -109.248,0 -197.811,-88.563 -197.811,-197.811 0,-44.581 14.752,-85.712 39.635,-118.792 -12.06,-13.747 -19.386,-31.747 -19.386,-51.471 0,-43.135 34.967,-78.103 78.102,-78.103 34.062,0 63.013,21.813 73.693,52.225 8.435,-1.098 17.034,-1.67 25.767,-1.67 8.518,0 16.91,0.539 25.144,1.584 10.611,-30.538 39.624,-52.467 73.775,-52.467 43.135,0 78.102,34.967 78.102,78.102 0,19.638 -7.265,37.57 -19.233,51.294 10.072,13.3 18.498,27.913 24.983,43.537 4.759,-0.906 9.666,-1.4 14.689,-1.4 43.135,0 78.102,34.968 78.102,78.102 C 78.102,-34.968 43.135,0 0,0 z"
         transform="matrix(0.77717341,0,0,0.10093952,375.05839,59.806437)" /><g
         id="g35635"><path
           d="m 24.329,286.402 c 0,-44.581 14.752,-85.713 39.634,-118.792 l 0,0 C 51.904,153.863 44.578,135.862 44.578,116.139 l 0,0 c 0,-43.136 34.967,-78.103 78.102,-78.103 l 0,0 c 34.061,0 63.012,21.812 73.693,52.225 l 0,0 c 8.434,-1.098 17.033,-1.67 25.767,-1.67 l 0,0 c 8.517,0 16.909,0.539 25.143,1.584 l 0,0 c 10.611,-30.538 39.624,-52.467 73.776,-52.467 l 0,0 c 43.134,0 78.101,34.967 78.101,78.101 l 0,0 c 0,19.639 -7.265,37.571 -19.232,51.295 l 0,0 c 10.072,13.3 18.498,27.912 24.982,43.537 l 0,0 c 4.76,-0.907 9.666,-1.4 14.69,-1.4 l 0,0 c 43.134,0 78.101,34.968 78.101,78.102 l 0,0 c 0,43.135 -34.967,78.103 -78.101,78.103 l 0,0 c -5.281,0 -10.435,-0.531 -15.422,-1.53 l 0,0 C 374.027,434.636 303.875,484.213 222.14,484.213 l 0,0 c -109.248,0 -197.811,-88.564 -197.811,-197.811"
           style="fill:url(#linearGradient35685);stroke:none"
           id="path33929" /><path
           id="path33941"
           style="fill:none;stroke:#000000;stroke-width:10;stroke-linecap:butt;stroke-linejoin:miter;stroke-miterlimit:4;stroke-opacity:1;stroke-dasharray:none"
           d="m 419.5996,365.4458 c -5.28,0 -10.435,-0.531 -15.421,-1.53 -30.151,70.72 -100.304,120.297 -182.039,120.297 -109.248,0 -197.811,-88.563 -197.811,-197.811 0,-44.581 14.752,-85.712 39.635,-118.792 -12.06,-13.747 -19.386,-31.747 -19.386,-51.471 0,-43.135 34.967,-78.103 78.102,-78.103 34.062,0 63.013,21.813 73.693,52.225 8.435,-1.098 17.034,-1.67 25.767,-1.67 8.518,0 16.91,0.539 25.144,1.584 10.611,-30.538 39.624,-52.467 73.775,-52.467 43.135,0 78.102,34.967 78.102,78.102 0,19.638 -7.265,37.57 -19.233,51.294 10.072,13.3 18.498,27.913 24.983,43.537 4.759,-0.906 9.666,-1.4 14.689,-1.4 43.135,0 78.102,34.968 78.102,78.102 0,43.135 -34.967,78.103 -78.102,78.103 z" /></g><path
         sodipodi:nodetypes="ssscssssscsssssssssssssssssssssssssssss"
         inkscape:connector-curvature="0"
         id="path33957"
         d="m 220.95,365.65 c -43.695,0 -78.725,-35.03 -78.725,-78.725 0,-18.9875 7.65963,-35.55178 17.675,-49.9 11.49378,-16.46621 5.21023,-37.25634 -2.24996,-50.45 -2.00834,-3.475 -4.01666,-6.95 -6.025,-10.425 -4.94453,-8.55547 -10.02666,-15.18231 -18.675,-14.675 -3.42396,0.20085 -6.80941,0.875 -10.4,0.875 -24.579,0 -44.3,-19.696 -44.3,-44.275 0,-24.577 19.721,-44.3 44.3,-44.3 24.578,0 44.275,19.723 44.275,44.3 -1.20683,11.29901 -4.97811,21.46896 -10.82496,29.1 -5.97331,7.79609 -2.86902,15.90266 2.425,25.025 l 6.05,10.425 c 10.71235,18.45889 27.30646,29.1309 42.65,26.77496 4.50614,-0.6919 9.09838,-1.2 13.825,-1.2 5.52479,0 10.83798,0.96662 16.1,1.625 18.10951,2.26586 30.39723,-10.81404 39.925,-27.3 L 283,172.1 c 5.39746,-9.33926 8.60892,-17.62976 2.25,-25.725 -6.14891,-7.82789 -10.175,-17.49618 -10.175,-28.3 0,-24.577 19.721,-44.3 44.3,-44.3 24.578,0 44.275,19.723 44.275,44.3 0,24.579 -19.697,44.275 -44.275,44.275 -2.89725,0 -5.71232,-0.43152 -8.475,-0.8 -10.16226,-1.35543 -15.71326,5.17938 -21.1,14.5 l -6.025,10.425 c -10.69522,18.50585 -11.5283,38.35398 -2.05,50.2 5.65581,7.06865 10.33731,14.99971 13.425,23.725 6.61391,18.68978 24.16896,23.46495 43.975,23.625 4.125,0.0334 8.25,0.0666 12.375,0.1 10.36356,0.0837 20.66997,-0.15441 24.075,-9.1 6.68456,-17.56145 22.3333,-30.775 42.2,-30.775 24.578,0 44.3,19.697 44.3,44.275 0,24.579 -19.722,44.275 -44.3,44.275 -19.97044,0 -35.86343,-13.27474 -42.3,-31.05 -3.33498,-9.20988 -13.56604,-9.74028 -24.05,-9.825 -4.125,-0.0334 -8.25,-0.0666 -12.375,-0.1 -19.58614,-0.15827 -37.31589,4.08182 -44.125,22.25 -11.27542,30.08527 -39.83828,51.575 -73.975,51.575 z"
         style="fill:#000000;fill-opacity:1;stroke:none" /><path
         transform="matrix(1.4366299,0,0,-0.95740149,-140.89006,585.91684)"
         d="m 541.0918,183.6165 c 0,90.01916 -118.62691,162.99411 -264.9606,162.99411 -146.3337,0 -264.960607,-72.97495 -264.960607,-162.99411 0,-90.01916 118.626907,-162.994109 264.960607,-162.994109 146.33369,0 264.9606,72.974949 264.9606,162.994109 z"
         sodipodi:ry="162.99411"
         sodipodi:rx="264.9606"
         sodipodi:cy="183.6165"
         sodipodi:cx="276.1312"
         id="path35470"
         style="opacity:0.16599193000000001;fill:#ffffff;fill-opacity:1;stroke:none;stroke-opacity:1"
         sodipodi:type="arc"
         clip-path="url(#clipPath35801)" /></g></g></svg>