<?xml version="1.0" encoding="iso-8859-1"?>
<!-- Generator: Adobe Illustrator 18.0.0, SVG Export Plug-In . SVG Version: 6.00 Build 0)  -->
<!DOCTYPE svg PUBLIC "-//W3C//DTD SVG 1.1//EN" "http://www.w3.org/Graphics/SVG/1.1/DTD/svg11.dtd">
<svg version="1.1" id="Capa_1" xmlns="http://www.w3.org/2000/svg" xmlns:xlink="http://www.w3.org/1999/xlink" x="0px" y="0px"
	 viewBox="0 0 60 60" style="enable-background:new 0 0 60 60;" xml:space="preserve">
<g>
	<path style="fill:#26B99A;" d="M59.707,0.293c-0.391-0.391-1.023-0.391-1.414,0l-14,14L39,19.586l-19.5,19.5l-5.207,5.207l-14,14
		c-0.391,0.391-0.391,1.023,0,1.414C0.488,59.902,0.744,60,1,60s0.512-0.098,0.707-0.293l14-14l5.207-5.207l19.5-19.5l5.293-5.293
		l14-14C60.098,1.316,60.098,0.684,59.707,0.293z"/>
	<polygon style="fill:#7383BF;" points="15,45 15,1 7,1 7,43 7,53 17,53 59,53 59,45 	"/>
	<g>
		<polygon style="fill:#556080;" points="15,15 45,15 45,45 53,45 53,17 53,7 43,7 15,7 		"/>
		<rect x="1" y="7" style="fill:#556080;" width="6" height="8"/>
		<rect x="45" y="53" style="fill:#556080;" width="8" height="6"/>
	</g>
</g>
<g>
</g>
<g>
</g>
<g>
</g>
<g>
</g>
<g>
</g>
<g>
</g>
<g>
</g>
<g>
</g>
<g>
</g>
<g>
</g>
<g>
</g>
<g>
</g>
<g>
</g>
<g>
</g>
<g>
</g>
</svg>
