<?xml version="1.0" encoding="iso-8859-1"?>
<!-- Generator: Adobe Illustrator 18.0.0, SVG Export Plug-In . SVG Version: 6.00 Build 0)  -->
<!DOCTYPE svg PUBLIC "-//W3C//DTD SVG 1.1//EN" "http://www.w3.org/Graphics/SVG/1.1/DTD/svg11.dtd">
<svg version="1.1" id="Capa_1" xmlns="http://www.w3.org/2000/svg" xmlns:xlink="http://www.w3.org/1999/xlink" x="0px" y="0px"
	 viewBox="0 0 60 60" style="enable-background:new 0 0 60 60;" xml:space="preserve">
<g>
	<path style="fill:#7383BF;" d="M40.209,16.5H53c0.552,0,1-0.448,1-1s-0.448-1-1-1H33c-0.164,0-0.313,0.049-0.45,0.119L32,14.556
		V17.5h-4v-2.944l-1,0.115V14.5H7v2h12.791C9.856,20.546,3,30.289,3,41.5c0,0.552,0.448,1,1,1s1-0.448,1-1
		c0-12.329,8.951-22.744,21-24.676V19.5h8v-2.676C46.049,18.756,55,29.171,55,41.5c0,0.552,0.448,1,1,1s1-0.448,1-1
		C57,30.289,50.144,20.546,40.209,16.5z"/>
	<g>
		<rect x="1" y="41.5" style="fill:#434C6D;" width="6" height="6"/>
		<path style="fill:#434C6D;" d="M8,48.5H0v-8h8V48.5z M2,46.5h4v-4H2V46.5z"/>
	</g>
	<g>
		<rect x="53" y="41.5" style="fill:#434C6D;" width="6" height="6"/>
		<path style="fill:#434C6D;" d="M60,48.5h-8v-8h8V48.5z M54,46.5h4v-4h-4V46.5z"/>
	</g>
	<g>
		<rect x="27" y="12.5" style="fill:#434C6D;" width="6" height="6"/>
		<path style="fill:#434C6D;" d="M34,19.5h-8v-8h8V19.5z M28,17.5h4v-4h-4V17.5z"/>
	</g>
	<g>
		<circle style="fill:#26B99A;" cx="4" cy="15.5" r="3"/>
		<path style="fill:#26B99A;" d="M4,19.5c-2.206,0-4-1.794-4-4s1.794-4,4-4s4,1.794,4,4S6.206,19.5,4,19.5z M4,13.5
			c-1.103,0-2,0.897-2,2s0.897,2,2,2s2-0.897,2-2S5.103,13.5,4,13.5z"/>
	</g>
	<g>
		<circle style="fill:#26B99A;" cx="56" cy="15.5" r="3"/>
		<path style="fill:#26B99A;" d="M56,19.5c-2.206,0-4-1.794-4-4s1.794-4,4-4s4,1.794,4,4S58.206,19.5,56,19.5z M56,13.5
			c-1.103,0-2,0.897-2,2s0.897,2,2,2s2-0.897,2-2S57.103,13.5,56,13.5z"/>
	</g>
</g>
<g>
</g>
<g>
</g>
<g>
</g>
<g>
</g>
<g>
</g>
<g>
</g>
<g>
</g>
<g>
</g>
<g>
</g>
<g>
</g>
<g>
</g>
<g>
</g>
<g>
</g>
<g>
</g>
<g>
</g>
</svg>
