<?xml version="1.0" encoding="UTF-8" standalone="no"?>
<!-- Created with Inkscape (http://www.inkscape.org/) -->

<svg
   xmlns:dc="http://purl.org/dc/elements/1.1/"
   xmlns:cc="http://creativecommons.org/ns#"
   xmlns:rdf="http://www.w3.org/1999/02/22-rdf-syntax-ns#"
   xmlns:svg="http://www.w3.org/2000/svg"
   xmlns="http://www.w3.org/2000/svg"
   xmlns:xlink="http://www.w3.org/1999/xlink"
   version="1.1"
   width="26.003891"
   height="26.015659"
   id="svg6034">
  <defs
     id="defs6036">
    <linearGradient
       x1="448.79019"
       y1="293.79044"
       x2="454.26642"
       y2="304.59381"
       id="linearGradient5856"
       xlink:href="#linearGradient5704-5"
       gradientUnits="userSpaceOnUse" />
    <linearGradient
       id="linearGradient5704-5">
      <stop
         id="stop5706-2"
         style="stop-color:#5a5a5a;stop-opacity:1"
         offset="0" />
      <stop
         id="stop5708-7"
         style="stop-color:#000000;stop-opacity:1"
         offset="1" />
    </linearGradient>
    <linearGradient
       x1="503.46234"
       y1="311.08139"
       x2="496.69983"
       y2="304.79916"
       id="linearGradient14646"
       xlink:href="#linearGradient16137"
       gradientUnits="userSpaceOnUse"
       gradientTransform="translate(-474.994,-196)" />
    <linearGradient
       id="linearGradient16137">
      <stop
         id="stop16139"
         style="stop-color:#db5d00;stop-opacity:1"
         offset="0" />
      <stop
         id="stop16141"
         style="stop-color:#ffd749;stop-opacity:1"
         offset="0.35076979" />
      <stop
         id="stop16143"
         style="stop-color:#fff593;stop-opacity:1"
         offset="0.59668732" />
      <stop
         id="stop16145"
         style="stop-color:#fff7c2;stop-opacity:1"
         offset="0.78382427" />
      <stop
         id="stop16147"
         style="stop-color:#ffffff;stop-opacity:1"
         offset="1" />
    </linearGradient>
    <linearGradient
       x1="505.68192"
       y1="299.7858"
       x2="502.13275"
       y2="298.38025"
       id="linearGradient14650"
       xlink:href="#linearGradient700-6"
       gradientUnits="userSpaceOnUse"
       gradientTransform="translate(-474.994,-196)" />
    <linearGradient
       id="linearGradient700-6">
      <stop
         id="stop347-1"
         style="stop-color:#376796;stop-opacity:1"
         offset="0" />
      <stop
         id="stop348-4"
         style="stop-color:#b0dde2;stop-opacity:1"
         offset="1" />
    </linearGradient>
    <linearGradient
       x1="494.79541"
       y1="296.24222"
       x2="503.20328"
       y2="301.24585"
       id="linearGradient14652"
       xlink:href="#linearGradient3480-2"
       gradientUnits="userSpaceOnUse"
       gradientTransform="translate(-474.994,-196)" />
    <linearGradient
       id="linearGradient3480-2">
      <stop
         id="stop3482-3"
         style="stop-color:#646464;stop-opacity:1"
         offset="0" />
      <stop
         id="stop3484-2"
         style="stop-color:#000000;stop-opacity:1"
         offset="1" />
    </linearGradient>
    <linearGradient
       x1="503.90671"
       y1="302.00549"
       x2="500.25235"
       y2="300.82486"
       id="linearGradient14654"
       xlink:href="#linearGradient14614"
       gradientUnits="userSpaceOnUse"
       gradientTransform="translate(-474.994,-196)" />
    <linearGradient
       id="linearGradient14614">
      <stop
         id="stop14616"
         style="stop-color:#c80000;stop-opacity:1"
         offset="0" />
      <stop
         id="stop14618"
         style="stop-color:#bf0000;stop-opacity:0"
         offset="1" />
    </linearGradient>
    <linearGradient
       x1="448.79019"
       y1="293.79044"
       x2="454.26642"
       y2="304.59381"
       id="linearGradient3138"
       xlink:href="#linearGradient5704-5"
       gradientUnits="userSpaceOnUse"
       gradientTransform="translate(-167.11546,211.3458)" />
  </defs>
  <metadata
     id="metadata6039">
    <rdf:RDF>
      <cc:Work
         rdf:about="">
        <dc:format>image/svg+xml</dc:format>
        <dc:type
           rdf:resource="http://purl.org/dc/dcmitype/StillImage" />
        <dc:title></dc:title>
      </cc:Work>
    </rdf:RDF>
  </metadata>
  <g
     transform="translate(-281.88454,-505.33014)"
     id="layer1">
    <rect
       width="24"
       height="24"
       x="282.88455"
       y="506.34579"
       id="rect12294"
       style="color:#000000;fill:none;stroke:none;stroke-width:1;marker:none;display:inline" />
    <path
       d="m 282.88454,506.3458 0,0.5 c 8,2.1875 -2.1665,15.6417 4.5,21 4.1531,3.3381 10.6496,2.8504 13.5,0 1,-1 3,-2 5.7187,-0.9375 l 0,-0.2188 c -1.7187,-2.8437 -4.7187,-2.3437 -6.2187,-0.3437 -1.8974,2.5298 -7.5,5.5 -10.5,1 -4,-6 11.5,-21 -7,-21 z"
       id="path12296"
       style="fill:url(#linearGradient3138);fill-opacity:1;stroke-width:1pt" />
    <g
       transform="translate(272.88454,407.3458)"
       id="g15748">
      <path
         d="m 20.50599,109.5 0,10 2,0 c 2,-3 4,-5 7,-7 l 0,-6 -6,-1 -3,4 z"
         id="path12332"
         style="fill:url(#linearGradient14646);fill-opacity:1;fill-rule:evenodd;stroke:#000000;stroke-width:1px;stroke-linecap:round;stroke-linejoin:round;stroke-opacity:1" />
      <path
         d="M 22,117.8669 24.00599,112 c 0,0 1,0 1,0 l 0,-2 -2,0 0,2 -1.33362,5.8646 0.32763,0.002 z"
         id="path13072"
         style="fill:#000000;fill-opacity:1;fill-rule:evenodd;stroke:none" />
      <path
         d="m 25.29308,99.5 -1.78709,6 7.06221,1.7811 c 0.70614,-0.3233 1.01874,-1.3214 0.93779,-2.3194 L 33.5,101.6184"
         id="path13820"
         style="color:#000000;fill:url(#linearGradient14650);fill-opacity:1;fill-rule:evenodd;stroke:url(#linearGradient14652);stroke-width:1px;stroke-linecap:round;stroke-linejoin:round;stroke-miterlimit:4;stroke-opacity:1;stroke-dasharray:none;stroke-dashoffset:0;marker:none;display:inline" />
      <path
         d="m 31.33134,104.9438 -5,-1"
         id="path14610"
         style="fill:none;stroke:#000000;stroke-width:1px;stroke-linecap:round;stroke-linejoin:miter;stroke-opacity:1" />
      <path
         d="m 30.48686,106.7926 c 0.48725,-0.2332 0.63717,-0.8036 0.61843,-1.3741 l -5.17231,-1.0434 -0.67465,1.0529 5.22853,1.3646 z"
         id="path14612"
         style="fill:url(#linearGradient14654);fill-opacity:1;fill-rule:evenodd;stroke:none" />
      <path
         d="M 24.92101,104.2064 26.2141,99.98988"
         id="path14622"
         style="fill:none;stroke:#ffffff;stroke-width:1px;stroke-linecap:round;stroke-linejoin:miter;stroke-opacity:1" />
      <path
         d="m 33.45251,103.4948 -0.96448,1.5471 c 0.04303,1.3375 -0.47615,2.8999 -1.89485,3.0005 l 0.0083,4.9298 c -3.08937,1.587 -5.39164,4.186 -7.30037,6.9536"
         id="path14656"
         style="fill:none;stroke:#000000;stroke-width:1.00000012;stroke-linecap:round;stroke-linejoin:miter;stroke-miterlimit:4;stroke-opacity:0.24495682;stroke-dasharray:none" />
      <path
         d="M 21.03975,117 21,109.725 l 2.66352,-3.5381 3.8959,0.9541 -0.67582,1.1926 -2.54426,-0.1193 -1.9082,1.8287 -1.39139,6.957 z"
         id="path16152"
         style="fill:#ffffff;fill-opacity:1;fill-rule:evenodd;stroke:none" />
    </g>
  </g>
</svg>
