<?xml version="1.0" encoding="UTF-8" standalone="no"?>
<!-- Created with Inkscape (http://www.inkscape.org/) -->

<svg
   xmlns:dc="http://purl.org/dc/elements/1.1/"
   xmlns:cc="http://creativecommons.org/ns#"
   xmlns:rdf="http://www.w3.org/1999/02/22-rdf-syntax-ns#"
   xmlns:svg="http://www.w3.org/2000/svg"
   xmlns="http://www.w3.org/2000/svg"
   xmlns:sodipodi="http://sodipodi.sourceforge.net/DTD/sodipodi-0.dtd"
   xmlns:inkscape="http://www.inkscape.org/namespaces/inkscape"
   version="1.1"
   id="svg3713"
   xml:space="preserve"
   width="277.23868"
   height="277.23868"
   viewBox="0 0 277.23868 277.23868"
   sodipodi:docname="logo.svg"
   inkscape:version="0.92.3 (2405546, 2018-03-11)"><metadata
     id="metadata3719"><rdf:RDF><cc:Work
         rdf:about=""><dc:format>image/svg+xml</dc:format><dc:type
           rdf:resource="http://purl.org/dc/dcmitype/StillImage" /><dc:title></dc:title></cc:Work></rdf:RDF></metadata><defs
     id="defs3717" /><sodipodi:namedview
     pagecolor="#ffffff"
     bordercolor="#666666"
     borderopacity="1"
     objecttolerance="10"
     gridtolerance="10"
     guidetolerance="10"
     inkscape:pageopacity="0"
     inkscape:pageshadow="2"
     inkscape:window-width="4800"
     inkscape:window-height="2844"
     id="namedview3715"
     showgrid="false"
     inkscape:zoom="8.9706098"
     inkscape:cx="138.61934"
     inkscape:cy="138.61934"
     inkscape:window-x="2462"
     inkscape:window-y="-16"
     inkscape:window-maximized="1"
     inkscape:current-layer="g3721" /><g
     id="g3721"
     inkscape:groupmode="layer"
     inkscape:label="logo"
     transform="matrix(1.3333333,0,0,-1.3333333,138.62,138.61867)"><g
       id="g3723"><g
         id="g3725" /><g
         id="g3727"><g
           id="g3729"><path
             d="m 85.04045,0 c 0,46.96715 -38.0733,85.04045 -85.04045,85.04045 -46.96715,0 -85.04045,-38.0733 -85.04045,-85.04045 0,-46.96715 38.0733,-85.04045 85.04045,-85.04045 46.96715,0 85.04045,38.0733 85.04045,85.04045 z m 14.17339,56.69362 c 0,23.48355 -19.03667,42.52022 -42.52022,42.52022 -23.48357,0 -42.52023,-19.03667 -42.52023,-42.52022 0,-23.48357 19.03666,-42.52023 42.52023,-42.52023 23.48355,0 42.52022,19.03666 42.52022,42.52023 z m 0,-113.38724 c 0,23.48357 -19.03667,42.52023 -42.52022,42.52023 -23.48357,0 -42.52023,-19.03666 -42.52023,-42.52023 0,-23.48355 19.03666,-42.52022 42.52023,-42.52022 23.48355,0 42.52022,19.03667 42.52022,42.52022 z m -113.38723,0 c 0,23.48357 -19.03666,42.52023 -42.52023,42.52023 -23.48355,0 -42.52022,-19.03666 -42.52022,-42.52023 0,-23.48355 19.03667,-42.52022 42.52022,-42.52022 23.48357,0 42.52023,19.03667 42.52023,42.52022 z"
             style="fill:none;stroke:#000000;stroke-width:8.50403023;stroke-linecap:butt;stroke-linejoin:miter;stroke-miterlimit:10;stroke-dasharray:none;stroke-opacity:1"
             id="path3731"
             inkscape:connector-curvature="0" /><g
             id="g3733"><g
               id="g3735"><path
                 d="m 85.04045,0 c 0,46.96715 -38.0733,85.04045 -85.04045,85.04045 -46.96715,0 -85.04045,-38.0733 -85.04045,-85.04045 0,-46.96715 38.0733,-85.04045 85.04045,-85.04045 46.96715,0 85.04045,38.0733 85.04045,85.04045 z m 14.17339,56.69362 c 0,23.48355 -19.03667,42.52022 -42.52022,42.52022 -23.48357,0 -42.52023,-19.03667 -42.52023,-42.52022 0,-23.48357 19.03666,-42.52023 42.52023,-42.52023 23.48355,0 42.52022,19.03666 42.52022,42.52023 z m 0,-113.38724 c 0,23.48357 -19.03667,42.52023 -42.52022,42.52023 -23.48357,0 -42.52023,-19.03666 -42.52023,-42.52023 0,-23.48355 19.03666,-42.52022 42.52023,-42.52022 23.48355,0 42.52022,19.03667 42.52022,42.52022 z m -113.38723,0 c 0,23.48357 -19.03666,42.52023 -42.52023,42.52023 -23.48355,0 -42.52022,-19.03666 -42.52022,-42.52023 0,-23.48355 19.03667,-42.52022 42.52022,-42.52022 23.48357,0 42.52023,19.03667 42.52023,42.52022 z"
                 style="fill:#d9d9d9;fill-opacity:1;fill-rule:nonzero;stroke:none"
                 id="path3737"
                 inkscape:connector-curvature="0" /></g></g></g><g
           id="g3739"><path
             d="m -14.17339,35.43349 c 7.81659,7.8166 20.53019,7.8166 28.34678,0 v 0 c 10.40511,-10.40511 21.2601,6.54506 21.2601,21.26013 v 0 c 0,11.77203 9.48808,21.2601 21.26013,21.2601 v 0 c 11.77203,0 21.2601,-9.48807 21.2601,-21.2601 v 0 c 0,-11.77205 -9.48807,-21.26013 -21.2601,-21.26013 v 0 c -14.71507,0 -31.66524,-10.85499 -21.26013,-21.2601 v 0 c 7.8166,-7.81659 7.8166,-20.53019 0,-28.34678 v 0 c -10.40511,-10.40511 6.54506,-21.2601 21.26013,-21.2601 v 0 c 11.77203,0 21.2601,-9.48808 21.2601,-21.26013 v 0 c 0,-11.77203 -9.48807,-21.2601 -21.2601,-21.2601 v 0 c -11.77205,0 -21.26013,9.48807 -21.26013,21.2601 v 0 c 0,14.71507 -10.85499,31.66524 -21.2601,21.26013 v 0 c -9.77076,-9.77075 -18.57602,-9.77075 -28.34678,0 v 0 c -10.40511,10.40511 -21.2601,-6.54506 -21.2601,-21.26013 v 0 c 0,-11.77203 -9.48808,-21.2601 -21.26013,-21.2601 v 0 c -11.77203,0 -21.2601,9.48807 -21.2601,21.2601 v 0 c 0,11.77205 9.48807,21.26013 21.2601,21.26013 v 0 c 14.71507,0 31.66524,10.85499 21.26013,21.2601 v 0 c -7.8166,7.81659 -7.8166,20.53019 0,28.34678 v 0 l 21.2601,21.2601"
             style="fill:#000000;fill-opacity:1;fill-rule:nonzero;stroke:none"
             id="path3741"
             inkscape:connector-curvature="0" /></g></g><g
         id="g3743"><path
           d="m -14.17339,35.43349 c 7.81659,7.8166 20.53019,7.8166 28.34678,0"
           style="fill:none;stroke:#000000;stroke-width:0.3985;stroke-linecap:butt;stroke-linejoin:miter;stroke-miterlimit:10;stroke-dasharray:none;stroke-opacity:1"
           id="path3745"
           inkscape:connector-curvature="0" /><path
           d="m 14.17339,35.43349 c 10.40511,-10.40511 21.2601,6.54506 21.2601,21.26013"
           style="fill:none;stroke:#000000;stroke-width:0.3985;stroke-linecap:butt;stroke-linejoin:miter;stroke-miterlimit:10;stroke-dasharray:none;stroke-opacity:1"
           id="path3747"
           inkscape:connector-curvature="0" /><path
           d="m 35.43349,56.69362 c 0,11.77203 9.48808,21.2601 21.26013,21.2601"
           style="fill:none;stroke:#000000;stroke-width:0.3985;stroke-linecap:butt;stroke-linejoin:miter;stroke-miterlimit:10;stroke-dasharray:none;stroke-opacity:1"
           id="path3749"
           inkscape:connector-curvature="0" /><path
           d="m 56.69362,77.95372 c 11.77203,0 21.2601,-9.48807 21.2601,-21.2601"
           style="fill:none;stroke:#000000;stroke-width:0.3985;stroke-linecap:butt;stroke-linejoin:miter;stroke-miterlimit:10;stroke-dasharray:none;stroke-opacity:1"
           id="path3751"
           inkscape:connector-curvature="0" /><path
           d="m 77.95372,56.69362 c 0,-11.77205 -9.48807,-21.26013 -21.2601,-21.26013"
           style="fill:none;stroke:#000000;stroke-width:0.3985;stroke-linecap:butt;stroke-linejoin:miter;stroke-miterlimit:10;stroke-dasharray:none;stroke-opacity:1"
           id="path3753"
           inkscape:connector-curvature="0" /><path
           d="m 56.69362,35.43349 c -14.71507,0 -31.66524,-10.85499 -21.26013,-21.2601"
           style="fill:none;stroke:#000000;stroke-width:0.3985;stroke-linecap:butt;stroke-linejoin:miter;stroke-miterlimit:10;stroke-dasharray:none;stroke-opacity:1"
           id="path3755"
           inkscape:connector-curvature="0" /><path
           d="m 35.43349,14.17339 c 7.8166,-7.81659 7.8166,-20.53019 0,-28.34678"
           style="fill:none;stroke:#000000;stroke-width:0.3985;stroke-linecap:butt;stroke-linejoin:miter;stroke-miterlimit:10;stroke-dasharray:none;stroke-opacity:1"
           id="path3757"
           inkscape:connector-curvature="0" /><path
           d="m 35.43349,-14.17339 c -10.40511,-10.40511 6.54506,-21.2601 21.26013,-21.2601"
           style="fill:none;stroke:#000000;stroke-width:0.3985;stroke-linecap:butt;stroke-linejoin:miter;stroke-miterlimit:10;stroke-dasharray:none;stroke-opacity:1"
           id="path3759"
           inkscape:connector-curvature="0" /><path
           d="m 56.69362,-35.43349 c 11.77203,0 21.2601,-9.48808 21.2601,-21.26013"
           style="fill:none;stroke:#000000;stroke-width:0.3985;stroke-linecap:butt;stroke-linejoin:miter;stroke-miterlimit:10;stroke-dasharray:none;stroke-opacity:1"
           id="path3761"
           inkscape:connector-curvature="0" /><path
           d="m 77.95372,-56.69362 c 0,-11.77203 -9.48807,-21.2601 -21.2601,-21.2601"
           style="fill:none;stroke:#000000;stroke-width:0.3985;stroke-linecap:butt;stroke-linejoin:miter;stroke-miterlimit:10;stroke-dasharray:none;stroke-opacity:1"
           id="path3763"
           inkscape:connector-curvature="0" /><path
           d="m 56.69362,-77.95372 c -11.77205,0 -21.26013,9.48807 -21.26013,21.2601"
           style="fill:none;stroke:#000000;stroke-width:0.3985;stroke-linecap:butt;stroke-linejoin:miter;stroke-miterlimit:10;stroke-dasharray:none;stroke-opacity:1"
           id="path3765"
           inkscape:connector-curvature="0" /><path
           d="m 35.43349,-56.69362 c 0,14.71507 -10.85499,31.66524 -21.2601,21.26013"
           style="fill:none;stroke:#000000;stroke-width:0.3985;stroke-linecap:butt;stroke-linejoin:miter;stroke-miterlimit:10;stroke-dasharray:none;stroke-opacity:1"
           id="path3767"
           inkscape:connector-curvature="0" /><path
           d="m 14.17339,-35.43349 c -9.77076,-9.77075 -18.57602,-9.77075 -28.34678,0"
           style="fill:none;stroke:#000000;stroke-width:0.3985;stroke-linecap:butt;stroke-linejoin:miter;stroke-miterlimit:10;stroke-dasharray:none;stroke-opacity:1"
           id="path3769"
           inkscape:connector-curvature="0" /><path
           d="m -14.17339,-35.43349 c -10.40511,10.40511 -21.2601,-6.54506 -21.2601,-21.26013"
           style="fill:none;stroke:#000000;stroke-width:0.3985;stroke-linecap:butt;stroke-linejoin:miter;stroke-miterlimit:10;stroke-dasharray:none;stroke-opacity:1"
           id="path3771"
           inkscape:connector-curvature="0" /><path
           d="m -35.43349,-56.69362 c 0,-11.77203 -9.48808,-21.2601 -21.26013,-21.2601"
           style="fill:none;stroke:#000000;stroke-width:0.3985;stroke-linecap:butt;stroke-linejoin:miter;stroke-miterlimit:10;stroke-dasharray:none;stroke-opacity:1"
           id="path3773"
           inkscape:connector-curvature="0" /><path
           d="m -56.69362,-77.95372 c -11.77203,0 -21.2601,9.48807 -21.2601,21.2601"
           style="fill:none;stroke:#000000;stroke-width:0.3985;stroke-linecap:butt;stroke-linejoin:miter;stroke-miterlimit:10;stroke-dasharray:none;stroke-opacity:1"
           id="path3775"
           inkscape:connector-curvature="0" /><path
           d="m -77.95372,-56.69362 c 0,11.77205 9.48807,21.26013 21.2601,21.26013"
           style="fill:none;stroke:#000000;stroke-width:0.3985;stroke-linecap:butt;stroke-linejoin:miter;stroke-miterlimit:10;stroke-dasharray:none;stroke-opacity:1"
           id="path3777"
           inkscape:connector-curvature="0" /><path
           d="m -56.69362,-35.43349 c 14.71507,0 31.66524,10.85499 21.26013,21.2601"
           style="fill:none;stroke:#000000;stroke-width:0.3985;stroke-linecap:butt;stroke-linejoin:miter;stroke-miterlimit:10;stroke-dasharray:none;stroke-opacity:1"
           id="path3779"
           inkscape:connector-curvature="0" /><path
           d="m -35.43349,-14.17339 c -7.8166,7.81659 -7.8166,20.53019 0,28.34678"
           style="fill:none;stroke:#000000;stroke-width:0.3985;stroke-linecap:butt;stroke-linejoin:miter;stroke-miterlimit:10;stroke-dasharray:none;stroke-opacity:1"
           id="path3781"
           inkscape:connector-curvature="0" /><path
           d="m -35.43349,14.17339 21.2601,21.2601"
           style="fill:none;stroke:#000000;stroke-width:0.3985;stroke-linecap:butt;stroke-linejoin:miter;stroke-miterlimit:10;stroke-dasharray:none;stroke-opacity:1"
           id="path3783"
           inkscape:connector-curvature="0" /></g><g
         id="g3785"><g
           id="g3787"><g
             id="g3789"
             transform="translate(-14.174,-35.434)"><g
               id="g3791" /><g
               id="g3793"
               transform="translate(14.174,35.434)" /></g></g><g
           id="g3795"><g
             id="g3797"
             transform="translate(14.173,35.433)"><g
               id="g3799" /><g
               id="g3801"
               transform="translate(-14.173,-35.433)" /></g></g><g
           id="g3803"><g
             id="g3805"
             transform="translate(35.433,14.173)"><g
               id="g3807" /><g
               id="g3809"
               transform="translate(-35.433,-14.173)" /></g></g><g
           id="g3811"><g
             id="g3813"
             transform="translate(35.433,56.692)"><g
               id="g3815" /><g
               id="g3817"
               transform="translate(-35.433,-56.692)" /></g></g><g
           id="g3819"><g
             id="g3821"
             transform="translate(56.692,35.433)"><g
               id="g3823" /><g
               id="g3825"
               transform="translate(-56.692,-35.433)" /></g></g><g
           id="g3827"><g
             id="g3829"
             transform="translate(77.952,56.692)"><g
               id="g3831" /><g
               id="g3833"
               transform="translate(-77.952,-56.692)" /></g></g><g
           id="g3835"><g
             id="g3837"
             transform="translate(56.692,77.952)"><g
               id="g3839" /><g
               id="g3841"
               transform="translate(-56.692,-77.952)" /></g></g><g
           id="g3843"><g
             id="g3845"
             transform="translate(35.433,-56.693)"><g
               id="g3847" /><g
               id="g3849"
               transform="translate(-35.433,56.693)" /></g></g><g
           id="g3851"><g
             id="g3853"
             transform="translate(77.952,-56.693)"><g
               id="g3855" /><g
               id="g3857"
               transform="translate(-77.952,56.693)" /></g></g><g
           id="g3859"><g
             id="g3861"
             transform="translate(56.692,-77.953)"><g
               id="g3863" /><g
               id="g3865"
               transform="translate(-56.692,77.953)" /></g></g><g
           id="g3867"><g
             id="g3869"
             transform="translate(56.692,-35.433)"><g
               id="g3871" /><g
               id="g3873"
               transform="translate(-56.692,35.433)" /></g></g><g
           id="g3875"><g
             id="g3877"
             transform="translate(-77.953,-56.693)"><g
               id="g3879" /><g
               id="g3881"
               transform="translate(77.953,56.693)" /></g></g><g
           id="g3883"><g
             id="g3885"
             transform="translate(-35.433,-56.693)"><g
               id="g3887" /><g
               id="g3889"
               transform="translate(35.433,56.693)" /></g></g><g
           id="g3891"><g
             id="g3893"
             transform="translate(-56.693,-77.953)"><g
               id="g3895" /><g
               id="g3897"
               transform="translate(56.693,77.953)" /></g></g><g
           id="g3899"><g
             id="g3901"
             transform="translate(-56.693,-35.433)"><g
               id="g3903" /><g
               id="g3905"
               transform="translate(56.693,35.433)" /></g></g><g
           id="g3907"><g
             id="g3909"
             transform="translate(14.173,-35.433)"><g
               id="g3911" /><g
               id="g3913"
               transform="translate(-14.173,35.433)" /></g></g><g
           id="g3915"><g
             id="g3917"
             transform="translate(-35.433,-14.174)"><g
               id="g3919" /><g
               id="g3921"
               transform="translate(35.433,14.174)" /></g></g><g
           id="g3923"><g
             id="g3925"
             transform="translate(35.433,-14.174)"><g
               id="g3927" /><g
               id="g3929"
               transform="translate(-35.433,14.174)" /></g></g><g
           id="g3931"><g
             id="g3933"
             transform="translate(-14.174,35.433)"><g
               id="g3935" /><g
               id="g3937"
               transform="translate(14.174,-35.433)" /></g></g><g
           id="g3939"><g
             id="g3941"
             transform="translate(-35.433,14.173)"><g
               id="g3943" /><g
               id="g3945"
               transform="translate(35.433,-14.173)" /></g></g></g><g
         id="g3947" /></g></g></svg>