<?xml version="1.0" encoding="UTF-8" standalone="no"?>
<!-- Created with Inkscape (http://www.inkscape.org/) -->

<svg
   xmlns:svg="http://www.w3.org/2000/svg"
   xmlns="http://www.w3.org/2000/svg"
   xmlns:xlink="http://www.w3.org/1999/xlink"
   version="1.1"
   width="640"
   height="640"
   id="svg2837"
   xml:space="preserve"><defs
     id="defs2841"><linearGradient
       x1="0"
       y1="0"
       x2="1"
       y2="0"
       id="linearGradient33921"
       gradientUnits="userSpaceOnUse"
       gradientTransform="matrix(-1.53e-5,-446.50488,-446.50488,1.53e-5,261.01562,484.2124)"
       spreadMethod="pad"><stop
         id="stop33923"
         style="stop-color:#ffffff;stop-opacity:1"
         offset="0" /><stop
         id="stop33925"
         style="stop-color:#616264;stop-opacity:1"
         offset="0.86813402" /><stop
         id="stop33927"
         style="stop-color:#8e9092;stop-opacity:1"
         offset="1" /></linearGradient><linearGradient
       x1="0"
       y1="0"
       x2="100.001"
       y2="0"
       id="linearGradient33985"
       gradientUnits="userSpaceOnUse"
       gradientTransform="matrix(2.466568,0,0,1.0813599,-53.365362,-26.941049)"><stop
         id="stop33987"
         style="stop-color:#000000;stop-opacity:1"
         offset="0" /><stop
         id="stop33989"
         style="stop-color:#000000;stop-opacity:1"
         offset="1" /></linearGradient><linearGradient
       x1="0"
       y1="0"
       x2="100.001"
       y2="0"
       id="linearGradient34027"
       gradientUnits="userSpaceOnUse"
       gradientTransform="matrix(0.8523865,-2.0862427,1.4763641,1.2044983,160.58887,221.97853)"><stop
         id="stop34029"
         style="stop-color:#000000;stop-opacity:1"
         offset="0" /><stop
         id="stop34031"
         style="stop-color:#000000;stop-opacity:1"
         offset="1" /></linearGradient><linearGradient
       x1="0"
       y1="0"
       x2="1"
       y2="0"
       id="linearGradient34101"
       gradientUnits="userSpaceOnUse"
       gradientTransform="matrix(-1.53e-5,446.50391,446.50391,1.53e-5,261.01465,37.708008)"
       spreadMethod="pad"><stop
         id="stop34103"
         style="stop-color:#ffffff;stop-opacity:1"
         offset="0" /><stop
         id="stop34105"
         style="stop-color:#231f20;stop-opacity:1"
         offset="0.92308003" /><stop
         id="stop34107"
         style="stop-color:#231f20;stop-opacity:1"
         offset="0.92308003" /><stop
         id="stop34109"
         style="stop-color:#231f20;stop-opacity:1"
         offset="1" /></linearGradient><filter
       x="-0.17975496"
       y="-0.19057155"
       width="1.3595099"
       height="1.3811431"
       color-interpolation-filters="sRGB"
       id="filter34971"><feGaussianBlur
         id="feGaussianBlur34973"
         stdDeviation="35.454644" /></filter><linearGradient
       x1="0"
       y1="0"
       x2="1"
       y2="0"
       id="linearGradient35685"
       xlink:href="#linearGradient33921"
       gradientUnits="userSpaceOnUse"
       gradientTransform="matrix(-1.53e-5,-446.50488,-446.50488,1.53e-5,261.01562,484.2124)"
       spreadMethod="pad" /><clipPath
       id="clipPath35801"><path
         d="m 392.42766,225.43729 c -3.74981,0 -7.51523,-0.14136 -11.05624,0.92584 -21.41291,-75.54824 -71.13038,-124.92904 -129.17769,-124.92904 -77.58673,0 -140.4832,94.60943 -140.4832,211.31612 0,47.62467 10.47671,91.56379 28.14834,126.90225 -8.56488,14.68555 -13.76772,33.91447 -13.76772,54.98507 0,46.07995 24.83318,83.43531 55.46718,83.43531 24.19047,0 44.75115,-23.30223 52.33595,-55.79054 5.99045,1.17296 12.09737,1.78401 18.29945,1.78401 6.04939,0 12.0093,-0.5758 17.85699,-1.69214 7.53582,32.62291 28.14054,56.04907 52.39418,56.04907 30.63402,0 55.4672,-37.35429 55.4672,-83.43425 0,-20.97873 -5.15952,-40.13501 -13.65906,-54.79597 7.15303,-14.20804 13.13707,-29.81871 17.74266,-46.50939 3.37978,0.96784 6.86469,1.49556 10.43196,1.49556 30.63399,0 55.46719,-37.35535 55.46719,-83.43423 0,-46.07996 -24.8332,-86.30767 -55.46719,-86.30767 z"
         id="path35803"
         style="fill:none;stroke:#ff0d0d;stroke-width:0.69681585;stroke-linecap:butt;stroke-linejoin:miter;stroke-miterlimit:4;stroke-opacity:1;stroke-dasharray:none" /></clipPath></defs><g
     transform="matrix(1.25,0,0,-1.25,0,640)"
     id="g2847"><g
       id="g35655"><path
         d="m 0,0 c -5.28,0 -10.435,-0.531 -15.421,-1.53 -30.151,70.72 -100.304,120.297 -182.039,120.297 -109.248,0 -197.811,-88.563 -197.811,-197.811 0,-44.581 14.752,-85.712 39.635,-118.792 -12.06,-13.747 -19.386,-31.747 -19.386,-51.471 0,-43.135 34.967,-78.103 78.102,-78.103 34.062,0 63.013,21.813 73.693,52.225 8.435,-1.098 17.034,-1.67 25.767,-1.67 8.518,0 16.91,0.539 25.144,1.584 10.611,-30.538 39.624,-52.467 73.775,-52.467 43.135,0 78.102,34.967 78.102,78.102 0,19.638 -7.265,37.57 -19.233,51.294 10.072,13.3 18.498,27.913 24.983,43.537 4.759,-0.906 9.666,-1.4 14.689,-1.4 43.135,0 78.102,34.968 78.102,78.102 C 78.102,-34.968 43.135,0 0,0 z"
         transform="matrix(0.77717341,0,0,0.10093952,375.05839,59.806437)"
         id="path34177"
         style="opacity:0.53036439;fill:#000000;stroke:#000000;stroke-width:10;stroke-linecap:butt;stroke-linejoin:miter;stroke-miterlimit:4;stroke-opacity:1;stroke-dasharray:none;filter:url(#filter34971)" /><g
         id="g35635"><path
           d="m 24.329,286.402 c 0,-44.581 14.752,-85.713 39.634,-118.792 l 0,0 C 51.904,153.863 44.578,135.862 44.578,116.139 l 0,0 c 0,-43.136 34.967,-78.103 78.102,-78.103 l 0,0 c 34.061,0 63.012,21.812 73.693,52.225 l 0,0 c 8.434,-1.098 17.033,-1.67 25.767,-1.67 l 0,0 c 8.517,0 16.909,0.539 25.143,1.584 l 0,0 c 10.611,-30.538 39.624,-52.467 73.776,-52.467 l 0,0 c 43.134,0 78.101,34.967 78.101,78.101 l 0,0 c 0,19.639 -7.265,37.571 -19.232,51.295 l 0,0 c 10.072,13.3 18.498,27.912 24.982,43.537 l 0,0 c 4.76,-0.907 9.666,-1.4 14.69,-1.4 l 0,0 c 43.134,0 78.101,34.968 78.101,78.102 l 0,0 c 0,43.135 -34.967,78.103 -78.101,78.103 l 0,0 c -5.281,0 -10.435,-0.531 -15.422,-1.53 l 0,0 C 374.027,434.636 303.875,484.213 222.14,484.213 l 0,0 c -109.248,0 -197.811,-88.564 -197.811,-197.811"
           id="path33929"
           style="fill:url(#linearGradient35685);stroke:none" /><path
           d="m 419.5996,365.4458 c -5.28,0 -10.435,-0.531 -15.421,-1.53 -30.151,70.72 -100.304,120.297 -182.039,120.297 -109.248,0 -197.811,-88.563 -197.811,-197.811 0,-44.581 14.752,-85.712 39.635,-118.792 -12.06,-13.747 -19.386,-31.747 -19.386,-51.471 0,-43.135 34.967,-78.103 78.102,-78.103 34.062,0 63.013,21.813 73.693,52.225 8.435,-1.098 17.034,-1.67 25.767,-1.67 8.518,0 16.91,0.539 25.144,1.584 10.611,-30.538 39.624,-52.467 73.775,-52.467 43.135,0 78.102,34.967 78.102,78.102 0,19.638 -7.265,37.57 -19.233,51.294 10.072,13.3 18.498,27.913 24.983,43.537 4.759,-0.906 9.666,-1.4 14.689,-1.4 43.135,0 78.102,34.968 78.102,78.102 0,43.135 -34.967,78.103 -78.102,78.103 z"
           id="path33941"
           style="fill:none;stroke:#000000;stroke-width:10;stroke-linecap:butt;stroke-linejoin:miter;stroke-miterlimit:4;stroke-opacity:1;stroke-dasharray:none" /></g><g
         id="g35599"><path
           d="m 299.6885,288.5244 c 0,43.695 -35.036,78.731 -78.731,78.731 -43.695,0 -78.731,-35.036 -78.731,-78.731 0,-43.694 35.036,-78.73 78.731,-78.73 43.695,0 78.731,35.036 78.731,78.73 z"
           id="path33957"
           style="fill:#000000;fill-opacity:1;stroke:#000000;stroke-width:2.15199995;stroke-linecap:butt;stroke-linejoin:miter;stroke-miterlimit:10;stroke-opacity:1;stroke-dasharray:none" /><path
           d="m 462.0703,288.5244 c 0,24.579 -19.707,44.286 -44.285,44.286 -24.579,0 -44.286,-19.707 -44.286,-44.286 0,-24.578 19.707,-44.286 44.286,-44.286 24.578,0 44.285,19.708 44.285,44.286 z"
           id="path33965"
           style="fill:#000000;fill-opacity:1;stroke:#000000;stroke-width:2.15199995;stroke-linecap:butt;stroke-linejoin:miter;stroke-miterlimit:10;stroke-opacity:1;stroke-dasharray:none" /><path
           d="m 363.6572,118.0664 c 0,24.579 -19.708,44.286 -44.286,44.286 -24.579,0 -44.286,-19.707 -44.286,-44.286 0,-24.577 19.707,-44.285 44.286,-44.285 24.578,0 44.286,19.708 44.286,44.285 z"
           id="path34007"
           style="fill:#000000;fill-opacity:1;stroke:#000000;stroke-width:2.15199995;stroke-linecap:butt;stroke-linejoin:miter;stroke-miterlimit:10;stroke-opacity:1;stroke-dasharray:none" /><path
           d="m 166.8301,118.0664 c 0,24.579 -19.708,44.286 -44.286,44.286 -24.579,0 -44.286,-19.707 -44.286,-44.286 0,-24.577 19.707,-44.285 44.286,-44.285 24.578,0 44.286,19.708 44.286,44.285 z"
           id="path34049"
           style="fill:#000000;fill-opacity:1;stroke:#000000;stroke-width:2.15199995;stroke-linecap:butt;stroke-linejoin:miter;stroke-miterlimit:10;stroke-opacity:1;stroke-dasharray:none" /><path
           d="m 234.93015,209.94152 c 19.39,3.382 32.137,-9.539 41.948,-26.602 l 0,0 5.912,-10.282 c 5.519,-9.59701 8.479,-17.91001 1.348,-26.37901 l 0.1,-0.05 c 8.346,6.08 17.891,11.974 27.41,16.101 l -0.05,0.05 c -10.906,-1.904 -16.571,4.544 -22.089,14.14101 l 0,0 -5.912,10.283 c -9.811,17.062 -14.43731,34.50322 -1.75931,49.55822 l 0.006,0.012 c -16.62837,-10.33021 -29.95181,-17.53833 -46.91681,-26.83533"
           id="path34033"
           style="fill:#000000;fill-opacity:1;stroke:none" /><path
           d="m 296.0669,261.597 c 6.57209,18.496 23.65326,23.052 42.87061,23.052 l 0,0 0,7.75 c -19.21735,0 -36.29852,4.558 -42.87061,23.054 l -0.15,0 c 0.36042,-17.906 -0.13958,-35.95 -0.1,-53.806 m 55.13219,30.752 -12.01158,0 0,-7.75 12.01158,0 c 10.80964,0 20.43158,-0.867 24.12723,-11.271 l 0.25,0.05 c -0.24821,10.088 0.20179,19.956 -0.15,30.244 l -0.1,0 c -3.69565,-10.404 -13.31759,-11.273 -24.12723,-11.273"
           id="path33991"
           style="fill:#000000;fill-opacity:1;stroke:none" /><path
           d="m 159.77751,237.27826 c 12.64561,-15.08306 7.74828,-32.66041 -2.0987,-49.70266 l 0,0 -5.93372,-10.26948 c -5.53797,-9.58609 -11.21221,-16.38495 -22.11486,-14.4595 l -0.0991,-0.21767 c 9.44444,-4.17426 19.39965,-9.30249 27.74211,-15.47069 l 0.0184,0.0683 c -7.11411,8.48266 -4.37418,16.61663 1.16427,26.20185 l 0,0 5.93457,10.26999 c 9.84612,17.04176 22.6192,29.78725 42.00114,26.36315 l 0.0133,4e-4 c -17.27367,9.21065 -29.97707,17.33858 -46.52544,27.35843"
           id="path35597"
           style="fill:#000000;fill-opacity:1;stroke:none" /></g><path
         d="m 541.0918,183.6165 a 264.9606,162.99411 0 1 1 -529.921207,0 264.9606,162.99411 0 1 1 529.921207,0 z"
         transform="matrix(1.4366299,0,0,-0.95740149,-140.89006,585.91684)"
         clip-path="url(#clipPath35801)"
         id="path35470"
         style="opacity:0.16599193;fill:#ffffff;fill-opacity:1;stroke:none" /></g></g></svg>